<?xml version="1.0" encoding="UTF-8" standalone="no"?>
<!DOCTYPE svg PUBLIC "-//W3C//DTD SVG 1.1//EN"
 "http://www.w3.org/Graphics/SVG/1.1/DTD/svg11.dtd">
<!-- Generated by graphviz version 2.42.3 (20191010.1750)
 -->
<!-- Title: finite_state_machine Pages: 1 -->
<svg width="401pt" height="252pt"
 viewBox="0.00 0.00 400.99 252.50" xmlns="http://www.w3.org/2000/svg" xmlns:xlink="http://www.w3.org/1999/xlink">
<g id="graph0" class="graph" transform="scale(1 1) rotate(0) translate(4 248.5)">
<title>finite_state_machine</title>
<polygon fill="white" stroke="transparent" points="-4,4 -4,-248.5 396.99,-248.5 396.99,4 -4,4"/>
<!-- 13 -->
<g id="node1" class="node">
<title>13</title>
<ellipse fill="none" stroke="black" cx="136.5" cy="-209.5" rx="19.5" ry="19.5"/>
<text text-anchor="middle" x="136.5" y="-205.8" font-family="Times,serif" font-size="14.00">13</text>
</g>
<!-- 24 -->
<g id="node2" class="node">
<title>24</title>
<ellipse fill="none" stroke="black" cx="256.49" cy="-190.5" rx="19.5" ry="19.5"/>
<text text-anchor="middle" x="256.49" y="-186.8" font-family="Times,serif" font-size="14.00">24</text>
</g>
<!-- 13&#45;&gt;24 -->
<g id="edge1" class="edge">
<title>13&#45;&gt;24</title>
<path fill="none" stroke="black" d="M154.1,-218.5C160.17,-221.33 167.23,-224.08 174,-225.5 193.57,-229.6 200.44,-232.96 219,-225.5 225.67,-222.81 231.82,-218.26 237.08,-213.31"/>
<polygon fill="black" stroke="black" points="239.75,-215.59 244.13,-205.94 234.69,-210.75 239.75,-215.59"/>
<text text-anchor="middle" x="196.5" y="-233.3" font-family="Times,serif" font-size="14.00">50/50</text>
</g>
<!-- 23 -->
<g id="node3" class="node">
<title>23</title>
<ellipse fill="none" stroke="black" cx="256.49" cy="-133.5" rx="19.5" ry="19.5"/>
<text text-anchor="middle" x="256.49" y="-129.8" font-family="Times,serif" font-size="14.00">23</text>
</g>
<!-- 13&#45;&gt;23 -->
<g id="edge2" class="edge">
<title>13&#45;&gt;23</title>
<path fill="none" stroke="black" d="M156.23,-208.17C173.86,-206.11 200.27,-200.87 219,-187.5 220.53,-186.41 230.3,-171.9 239.35,-158.19"/>
<polygon fill="black" stroke="black" points="242.53,-159.73 245.1,-149.45 236.68,-155.89 242.53,-159.73"/>
<text text-anchor="middle" x="196.5" y="-208.3" font-family="Times,serif" font-size="14.00">100/100</text>
</g>
<!-- 2 -->
<g id="node8" class="node">
<title>2</title>
<ellipse fill="none" stroke="black" cx="374.99" cy="-100.5" rx="18" ry="18"/>
<text text-anchor="middle" x="374.99" y="-96.8" font-family="Times,serif" font-size="14.00">2</text>
</g>
<!-- 24&#45;&gt;2 -->
<g id="edge8" class="edge">
<title>24&#45;&gt;2</title>
<path fill="none" stroke="black" d="M274.51,-182.64C291.8,-174.19 318.84,-159.61 338.99,-142.5 345.71,-136.8 352.15,-129.71 357.64,-122.99"/>
<polygon fill="black" stroke="black" points="360.64,-124.84 364.03,-114.81 355.12,-120.53 360.64,-124.84"/>
<text text-anchor="middle" x="316.49" y="-175.3" font-family="Times,serif" font-size="14.00">100/100</text>
</g>
<!-- 23&#45;&gt;2 -->
<g id="edge9" class="edge">
<title>23&#45;&gt;2</title>
<path fill="none" stroke="black" d="M275.44,-128.41C294.73,-122.95 325.57,-114.21 347.62,-107.97"/>
<polygon fill="black" stroke="black" points="348.68,-111.31 357.35,-105.21 346.77,-104.57 348.68,-111.31"/>
<text text-anchor="middle" x="316.49" y="-127.3" font-family="Times,serif" font-size="14.00">200/250</text>
</g>
<!-- 12 -->
<g id="node4" class="node">
<title>12</title>
<ellipse fill="none" stroke="black" cx="136.5" cy="-133.5" rx="19.5" ry="19.5"/>
<text text-anchor="middle" x="136.5" y="-129.8" font-family="Times,serif" font-size="14.00">12</text>
</g>
<!-- 12&#45;&gt;24 -->
<g id="edge3" class="edge">
<title>12&#45;&gt;24</title>
<path fill="none" stroke="black" d="M154.38,-141.51C170.89,-149.35 196.7,-161.67 219,-172.5 222.44,-174.17 226.06,-175.94 229.63,-177.7"/>
<polygon fill="black" stroke="black" points="228.28,-180.93 238.8,-182.21 231.38,-174.65 228.28,-180.93"/>
<text text-anchor="middle" x="196.5" y="-176.3" font-family="Times,serif" font-size="14.00">50/50</text>
</g>
<!-- 12&#45;&gt;23 -->
<g id="edge4" class="edge">
<title>12&#45;&gt;23</title>
<path fill="none" stroke="black" d="M156.2,-133.5C175.18,-133.5 204.84,-133.5 226.8,-133.5"/>
<polygon fill="black" stroke="black" points="226.89,-137 236.89,-133.5 226.89,-130 226.89,-137"/>
<text text-anchor="middle" x="196.5" y="-137.3" font-family="Times,serif" font-size="14.00">100/100</text>
</g>
<!-- 22 -->
<g id="node5" class="node">
<title>22</title>
<ellipse fill="none" stroke="black" cx="256.49" cy="-76.5" rx="19.5" ry="19.5"/>
<text text-anchor="middle" x="256.49" y="-72.8" font-family="Times,serif" font-size="14.00">22</text>
</g>
<!-- 12&#45;&gt;22 -->
<g id="edge5" class="edge">
<title>12&#45;&gt;22</title>
<path fill="none" stroke="black" d="M154.14,-124.64C160.34,-121.39 167.46,-117.72 174,-114.5 192.32,-105.46 213.2,-95.74 229.24,-88.39"/>
<polygon fill="black" stroke="black" points="230.89,-91.48 238.54,-84.14 227.98,-85.11 230.89,-91.48"/>
<text text-anchor="middle" x="196.5" y="-118.3" font-family="Times,serif" font-size="14.00">50/200</text>
</g>
<!-- 22&#45;&gt;2 -->
<g id="edge10" class="edge">
<title>22&#45;&gt;2</title>
<path fill="none" stroke="black" d="M276.02,-79.53C292.58,-82.33 317.5,-86.76 338.99,-91.5 341.71,-92.1 344.54,-92.76 347.36,-93.45"/>
<polygon fill="black" stroke="black" points="346.76,-96.9 357.32,-95.96 348.48,-90.12 346.76,-96.9"/>
<text text-anchor="middle" x="316.49" y="-95.3" font-family="Times,serif" font-size="14.00">100/200</text>
</g>
<!-- 11 -->
<g id="node6" class="node">
<title>11</title>
<ellipse fill="none" stroke="black" cx="136.5" cy="-57.5" rx="19.5" ry="19.5"/>
<text text-anchor="middle" x="136.5" y="-53.8" font-family="Times,serif" font-size="14.00">11</text>
</g>
<!-- 11&#45;&gt;22 -->
<g id="edge6" class="edge">
<title>11&#45;&gt;22</title>
<path fill="none" stroke="black" d="M155.91,-55.43C172.62,-54.09 197.81,-53.42 219,-58.5 222.72,-59.39 226.5,-60.71 230.15,-62.24"/>
<polygon fill="black" stroke="black" points="228.84,-65.49 239.37,-66.62 231.84,-59.17 228.84,-65.49"/>
<text text-anchor="middle" x="196.5" y="-62.3" font-family="Times,serif" font-size="14.00">50/50</text>
</g>
<!-- 21 -->
<g id="node7" class="node">
<title>21</title>
<ellipse fill="none" stroke="black" cx="256.49" cy="-19.5" rx="19.5" ry="19.5"/>
<text text-anchor="middle" x="256.49" y="-15.8" font-family="Times,serif" font-size="14.00">21</text>
</g>
<!-- 11&#45;&gt;21 -->
<g id="edge7" class="edge">
<title>11&#45;&gt;21</title>
<path fill="none" stroke="black" d="M152.87,-46.6C159.16,-42.58 166.68,-38.32 174,-35.5 190.83,-29.01 210.68,-25.04 226.57,-22.68"/>
<polygon fill="black" stroke="black" points="227.42,-26.09 236.86,-21.29 226.48,-19.16 227.42,-26.09"/>
<text text-anchor="middle" x="196.5" y="-39.3" font-family="Times,serif" font-size="14.00">50/50</text>
</g>
<!-- 21&#45;&gt;2 -->
<g id="edge11" class="edge">
<title>21&#45;&gt;2</title>
<path fill="none" stroke="black" d="M274.61,-27.12C291.74,-35.15 318.44,-48.81 338.99,-64.5 344.77,-68.9 350.49,-74.26 355.58,-79.47"/>
<polygon fill="black" stroke="black" points="353.14,-81.98 362.53,-86.89 358.25,-77.19 353.14,-81.98"/>
<text text-anchor="middle" x="316.49" y="-68.3" font-family="Times,serif" font-size="14.00">50/100</text>
</g>
<!-- 1 -->
<g id="node9" class="node">
<title>1</title>
<ellipse fill="none" stroke="black" cx="18" cy="-133.5" rx="18" ry="18"/>
<text text-anchor="middle" x="18" y="-129.8" font-family="Times,serif" font-size="14.00">1</text>
</g>
<!-- 1&#45;&gt;13 -->
<g id="edge12" class="edge">
<title>1&#45;&gt;13</title>
<path fill="none" stroke="black" d="M33.75,-143.12C53.21,-155.82 87.72,-178.33 111.09,-193.58"/>
<polygon fill="black" stroke="black" points="109.46,-196.69 119.75,-199.22 113.29,-190.83 109.46,-196.69"/>
<text text-anchor="middle" x="76.5" y="-188.3" font-family="Times,serif" font-size="14.00">150/350</text>
</g>
<!-- 1&#45;&gt;12 -->
<g id="edge13" class="edge">
<title>1&#45;&gt;12</title>
<path fill="none" stroke="black" d="M36.19,-133.5C54.68,-133.5 84.41,-133.5 106.53,-133.5"/>
<polygon fill="black" stroke="black" points="106.69,-137 116.69,-133.5 106.69,-130 106.69,-137"/>
<text text-anchor="middle" x="76.5" y="-137.3" font-family="Times,serif" font-size="14.00">200/200</text>
</g>
<!-- 1&#45;&gt;11 -->
<g id="edge14" class="edge">
<title>1&#45;&gt;11</title>
<path fill="none" stroke="black" d="M33.75,-123.87C53.21,-111.18 87.72,-88.67 111.09,-73.42"/>
<polygon fill="black" stroke="black" points="113.29,-76.17 119.75,-67.77 109.46,-70.31 113.29,-76.17"/>
<text text-anchor="middle" x="76.5" y="-113.3" font-family="Times,serif" font-size="14.00">100/300</text>
</g>
</g>
</svg>
